# xmcd
# 
# Track frame offsets:
#     150
#     18244
#     33084
#     55410
# 
# Disc length: 976
# 
# Revision: 0
# Processed by: cddbd v1.5.2PL0 Copyright (c) Steve Scherf et al.
# Submitted via: BonkEnc v1.0.6
# 
DISCID=2603ce04
DTITLE=大橋卓弥 - SKY
DYEAR=0
DGENRE=
TTITLE0=SKY
TTITLE1=Loop! Loop!
TTITLE2=永遠の果てに
TTITLE3=SKY (Instrumental)
EXTD=
EXTT0=
EXTT1=
EXTT2=
EXTT3=
PLAYORDER=
